<svg width="72" height="72" viewBox="0 0 72 72" fill="none" xmlns="http://www.w3.org/2000/svg">
<circle cx="54" cy="24" r="18" fill="url(#paint0_linear_537_36612)"/>
<path fill-rule="evenodd" clip-rule="evenodd" d="M13.5 66H34.5H36H55.5C64.6127 66 72 58.6127 72 49.5C72 40.3873 64.6127 33 55.5 33C55.1382 33 54.7791 33.0116 54.4231 33.0346C50.6566 25.879 43.1481 21 34.5 21C23.6003 21 14.5107 28.7504 12.4418 39.0409C5.48057 39.5806 0 45.4003 0 52.5C0 59.9558 6.04416 66 13.5 66Z" fill="#E7F1FF"/>
<path fill-rule="evenodd" clip-rule="evenodd" d="M13.5 66H34.5H36H55.5C64.6127 66 72 58.6127 72 49.5C72 40.3873 64.6127 33 55.5 33C55.1382 33 54.7791 33.0116 54.4231 33.0346C50.6566 25.879 43.1481 21 34.5 21C23.6003 21 14.5107 28.7504 12.4418 39.0409C5.48057 39.5806 0 45.4003 0 52.5C0 59.9558 6.04416 66 13.5 66Z" fill="url(#paint1_linear_537_36612)"/>
<path fill-rule="evenodd" clip-rule="evenodd" d="M13.5 66H34.5H36H55.5C64.6127 66 72 58.6127 72 49.5C72 40.3873 64.6127 33 55.5 33C55.1382 33 54.7791 33.0116 54.4231 33.0346C50.6566 25.879 43.1481 21 34.5 21C23.6003 21 14.5107 28.7504 12.4418 39.0409C5.48057 39.5806 0 45.4003 0 52.5C0 59.9558 6.04416 66 13.5 66Z" fill="url(#paint2_linear_537_36612)"/>
<path d="M0 52.5C0 45.0442 6.04416 39 13.5 39H18C27.9411 39 36 47.0589 36 57V66H13.5C6.04416 66 0 59.9558 0 52.5Z" fill="url(#paint3_radial_537_36612)"/>
<path d="M12 43.5C12 31.0736 22.0736 21 34.5 21C46.9264 21 57 31.0736 57 43.5C57 55.9264 46.9264 66 34.5 66C22.0736 66 12 55.9264 12 43.5Z" fill="url(#paint4_radial_537_36612)"/>
<circle cx="55.5" cy="49.5" r="16.5" fill="url(#paint5_radial_537_36612)"/>
<path fill-rule="evenodd" clip-rule="evenodd" d="M55.5 36C56.3284 36 57 36.6716 57 37.5V39.8787L57.4393 39.4393C58.0251 38.8536 58.9749 38.8536 59.5607 39.4393C60.1465 40.0251 60.1465 40.9749 59.5607 41.5607L57 44.1213V48.4021L60.7076 46.2615L61.6449 42.7637C61.8593 41.9635 62.6818 41.4886 63.482 41.703C64.2822 41.9174 64.7571 42.7399 64.5426 43.5401L64.3819 44.1402L66.4417 42.951C67.1591 42.5367 68.0765 42.7826 68.4907 43.5C68.9049 44.2174 68.6591 45.1348 67.9417 45.549L65.8817 46.7383L66.482 46.8992C67.2822 47.1136 67.7571 47.9361 67.5426 48.7363C67.3282 49.5365 66.5057 50.0114 65.7055 49.797L62.2075 48.8597L58.5 51.0002L62.2069 53.1404L65.705 52.203C66.5052 51.9886 67.3277 52.4635 67.5421 53.2637C67.7565 54.0639 67.2816 54.8864 66.4814 55.1008L65.8811 55.2617L67.941 56.451C68.6585 56.8652 68.9043 57.7826 68.4901 58.5C68.0759 59.2174 67.1585 59.4633 66.441 59.049L64.3813 57.8599L64.5421 58.4599C64.7565 59.2601 64.2816 60.0826 63.4814 60.297C62.6812 60.5114 61.8587 60.0365 61.6443 59.2363L60.7071 55.7385L57 53.5983V57.8787L59.5607 60.4393C60.1465 61.0251 60.1465 61.9749 59.5607 62.5607C58.9749 63.1464 58.0251 63.1464 57.4393 62.5607L57 62.1213V64.5C57 65.3284 56.3284 66 55.5 66C54.6716 66 54 65.3284 54 64.5V62.1213L53.5607 62.5607C52.9749 63.1464 52.0251 63.1464 51.4393 62.5607C50.8536 61.9749 50.8536 61.0251 51.4393 60.4393L54 57.8787V53.5983L50.2929 55.7385L49.3557 59.2363C49.1413 60.0365 48.3188 60.5114 47.5186 60.297C46.7184 60.0825 46.2435 59.26 46.4579 58.4598L46.6187 57.8599L44.559 59.049C43.8415 59.4633 42.9241 59.2174 42.5099 58.5C42.0957 57.7826 42.3415 56.8652 43.059 56.451L45.1189 55.2617L44.5186 55.1008C43.7184 54.8864 43.2435 54.0639 43.4579 53.2637C43.6723 52.4635 44.4948 51.9886 45.295 52.203L48.7931 53.1403L52.5 51.0002L48.7925 48.8597L45.2945 49.797C44.4943 50.0114 43.6718 49.5365 43.4574 48.7363C43.243 47.9361 43.7178 47.1136 44.518 46.8992L45.1183 46.7384L43.0584 45.549C42.3409 45.1348 42.0951 44.2174 42.5093 43.5C42.9235 42.7826 43.8409 42.5367 44.5584 42.951L46.6181 44.1402L46.4574 43.5402C46.243 42.74 46.7178 41.9175 47.518 41.703C48.3182 41.4886 49.1407 41.9635 49.3551 42.7637L50.2924 46.2615L54 48.4021V44.1213L51.4393 41.5607C50.8536 40.9749 50.8536 40.0251 51.4393 39.4393C52.0251 38.8536 52.9749 38.8536 53.5607 39.4393L54 39.8787V37.5C54 36.6716 54.6716 36 55.5 36Z" fill="url(#paint6_linear_537_36612)"/>
<path fill-rule="evenodd" clip-rule="evenodd" d="M19.5 42C20.3284 42 21 42.6716 21 43.5V45.8787L21.4393 45.4393C22.0251 44.8536 22.9749 44.8536 23.5607 45.4393C24.1465 46.0251 24.1465 46.9749 23.5607 47.5607L21 50.1213V54.4021L24.7076 52.2615L25.6449 48.7637C25.8593 47.9635 26.6818 47.4886 27.482 47.703C28.2822 47.9174 28.7571 48.7399 28.5426 49.5401L28.3819 50.1402L30.4417 48.951C31.1591 48.5367 32.0765 48.7826 32.4907 49.5C32.9049 50.2174 32.6591 51.1348 31.9417 51.549L29.8817 52.7383L30.482 52.8992C31.2822 53.1136 31.7571 53.9361 31.5426 54.7363C31.3282 55.5365 30.5057 56.0114 29.7055 55.797L26.2075 54.8597L22.5 57.0002L26.2069 59.1404L29.705 58.203C30.5052 57.9886 31.3277 58.4635 31.5421 59.2637C31.7565 60.0639 31.2816 60.8864 30.4814 61.1008L29.8811 61.2617L31.941 62.451C32.6585 62.8652 32.9043 63.7826 32.4901 64.5C32.0759 65.2174 31.1585 65.4633 30.441 65.049L28.3813 63.8599L28.5421 64.4599C28.7565 65.2601 28.2816 66.0826 27.4814 66.297C26.6812 66.5114 25.8587 66.0365 25.6443 65.2363L24.7071 61.7385L21 59.5983V63.8787L23.5607 66.4393C24.1465 67.0251 24.1465 67.9749 23.5607 68.5607C22.9749 69.1464 22.0251 69.1464 21.4393 68.5607L21 68.1213V70.5C21 71.3284 20.3284 72 19.5 72C18.6716 72 18 71.3284 18 70.5V68.1213L17.5607 68.5607C16.9749 69.1464 16.0251 69.1464 15.4393 68.5607C14.8536 67.9749 14.8536 67.0251 15.4393 66.4393L18 63.8787V59.5983L14.2929 61.7385L13.3557 65.2363C13.1413 66.0365 12.3188 66.5114 11.5186 66.297C10.7184 66.0825 10.2435 65.26 10.4579 64.4598L10.6187 63.8599L8.55897 65.049C7.84153 65.4633 6.92415 65.2174 6.50993 64.5C6.09572 63.7826 6.34153 62.8652 7.05897 62.451L9.1189 61.2617L8.51858 61.1008C7.71839 60.8864 7.24351 60.0639 7.45792 59.2637C7.67234 58.4635 8.49484 57.9886 9.29504 58.203L12.7931 59.1403L16.5 57.0002L12.7925 54.8597L9.29448 55.797C8.49429 56.0114 7.67178 55.5365 7.45737 54.7363C7.24295 53.9361 7.71783 53.1136 8.51803 52.8992L9.11831 52.7384L7.05836 51.549C6.34092 51.1348 6.0951 50.2174 6.50932 49.5C6.92353 48.7826 7.84092 48.5367 8.55836 48.951L10.6181 50.1402L10.4574 49.5402C10.243 48.74 10.7178 47.9175 11.518 47.703C12.3182 47.4886 13.1407 47.9635 13.3551 48.7637L14.2924 52.2615L18 54.4021V50.1213L15.4393 47.5607C14.8536 46.9749 14.8536 46.0251 15.4393 45.4393C16.0251 44.8536 16.9749 44.8536 17.5607 45.4393L18 45.8787V43.5C18 42.6716 18.6716 42 19.5 42Z" fill="url(#paint7_linear_537_36612)"/>
<defs>
<linearGradient id="paint0_linear_537_36612" x1="62.1" y1="31.8" x2="32.7478" y2="-4.02444" gradientUnits="userSpaceOnUse">
<stop stop-color="#EF6D0F"/>
<stop offset="0.56298" stop-color="#EEB82E"/>
<stop offset="1" stop-color="#FEB649" stop-opacity="0.78"/>
</linearGradient>
<linearGradient id="paint1_linear_537_36612" x1="22.5" y1="31.5" x2="36" y2="66" gradientUnits="userSpaceOnUse">
<stop stop-color="#C6D8F5"/>
<stop offset="1" stop-color="#89AFD1" stop-opacity="0"/>
</linearGradient>
<linearGradient id="paint2_linear_537_36612" x1="32.0998" y1="67.5925" x2="31.1538" y2="21" gradientUnits="userSpaceOnUse">
<stop stop-color="#547DDA"/>
<stop offset="0.257422" stop-color="#93C2FF" stop-opacity="0"/>
</linearGradient>
<radialGradient id="paint3_radial_537_36612" cx="0" cy="0" r="1" gradientUnits="userSpaceOnUse" gradientTransform="translate(19.5 66) rotate(-127.875) scale(28.5044 32.9871)">
<stop offset="0.683784" stop-color="#8FABDD" stop-opacity="0"/>
<stop offset="1" stop-color="#5582D3"/>
</radialGradient>
<radialGradient id="paint4_radial_537_36612" cx="0" cy="0" r="1" gradientUnits="userSpaceOnUse" gradientTransform="translate(34.5 61.5) rotate(-90) scale(40.5)">
<stop offset="0.598765" stop-color="#C7DFFF" stop-opacity="0"/>
<stop offset="1" stop-color="#6B97E6"/>
</radialGradient>
<radialGradient id="paint5_radial_537_36612" cx="0" cy="0" r="1" gradientUnits="userSpaceOnUse" gradientTransform="translate(46.7 61.6) rotate(-56.3099) scale(31.7288)">
<stop offset="0.47771" stop-color="#8FABDD" stop-opacity="0"/>
<stop offset="1" stop-color="#5582D3"/>
</radialGradient>
<linearGradient id="paint6_linear_537_36612" x1="55.5" y1="36" x2="55.5" y2="66" gradientUnits="userSpaceOnUse">
<stop stop-color="#1A70F0"/>
<stop offset="1" stop-color="#2D94DE"/>
</linearGradient>
<linearGradient id="paint7_linear_537_36612" x1="19.5" y1="42" x2="19.5" y2="72" gradientUnits="userSpaceOnUse">
<stop stop-color="#1A70F0"/>
<stop offset="1" stop-color="#2D94DE"/>
</linearGradient>
</defs>
</svg>
