<svg width="72" height="72" viewBox="0 0 33 33" fill="none" xmlns="http://www.w3.org/2000/svg">
<path fill-rule="evenodd" clip-rule="evenodd" d="M6.5 24.5H15.8333H16.5H25.1667C29.2168 24.5 32.5 21.2168 32.5 17.1667C32.5 13.1166 29.2168 9.83333 25.1667 9.83333C25.0059 9.83333 24.8463 9.83851 24.688 9.8487C23.014 6.66845 19.6769 4.5 15.8333 4.5C10.989 4.5 6.94921 7.94464 6.0297 12.5182C2.93581 12.758 0.5 15.3446 0.5 18.5C0.5 21.8137 3.18629 24.5 6.5 24.5Z" fill="#E7F1FF"/>
<path fill-rule="evenodd" clip-rule="evenodd" d="M6.5 24.5H15.8333H16.5H25.1667C29.2168 24.5 32.5 21.2168 32.5 17.1667C32.5 13.1166 29.2168 9.83333 25.1667 9.83333C25.0059 9.83333 24.8463 9.83851 24.688 9.8487C23.014 6.66845 19.6769 4.5 15.8333 4.5C10.989 4.5 6.94921 7.94464 6.0297 12.5182C2.93581 12.758 0.5 15.3446 0.5 18.5C0.5 21.8137 3.18629 24.5 6.5 24.5Z" fill="url(#paint0_linear_740_240520)"/>
<path fill-rule="evenodd" clip-rule="evenodd" d="M6.5 24.5H15.8333H16.5H25.1667C29.2168 24.5 32.5 21.2168 32.5 17.1667C32.5 13.1166 29.2168 9.83333 25.1667 9.83333C25.0059 9.83333 24.8463 9.83851 24.688 9.8487C23.014 6.66845 19.6769 4.5 15.8333 4.5C10.989 4.5 6.94921 7.94464 6.0297 12.5182C2.93581 12.758 0.5 15.3446 0.5 18.5C0.5 21.8137 3.18629 24.5 6.5 24.5Z" fill="url(#paint1_linear_740_240520)"/>
<path d="M0.5 18.5C0.5 15.1863 3.18629 12.5 6.5 12.5H8.5C12.9183 12.5 16.5 16.0817 16.5 20.5V24.5H6.5C3.18629 24.5 0.5 21.8137 0.5 18.5Z" fill="url(#paint2_radial_740_240520)"/>
<path d="M5.83398 14.5C5.83398 8.97715 10.3111 4.5 15.834 4.5C21.3568 4.5 25.834 8.97715 25.834 14.5C25.834 20.0228 21.3568 24.5 15.834 24.5C10.3111 24.5 5.83398 20.0228 5.83398 14.5Z" fill="url(#paint3_radial_740_240520)"/>
<circle cx="25.1673" cy="17.1668" r="7.33333" fill="url(#paint4_radial_740_240520)"/>
<path fill-rule="evenodd" clip-rule="evenodd" d="M25.1661 16.5C25.5343 16.5 25.8328 16.7985 25.8328 17.1667V18.2239L26.0281 18.0286C26.2884 17.7682 26.7105 17.7682 26.9709 18.0286C27.2312 18.2889 27.2312 18.7111 26.9709 18.9714L25.8328 20.1095V22.0136L27.4846 21.0599L27.9011 19.5057C27.9964 19.15 28.3619 18.939 28.7176 19.0343C29.0732 19.1296 29.2843 19.4951 29.189 19.8508L29.1176 20.1171L30.032 19.5892C30.3509 19.4051 30.7586 19.5143 30.9427 19.8332C31.1268 20.152 31.0175 20.5598 30.6987 20.7439L29.7838 21.2721L30.0509 21.3437C30.4066 21.439 30.6176 21.8045 30.5223 22.1602C30.427 22.5158 30.0615 22.7269 29.7058 22.6316L28.1508 22.2149L26.5019 23.1669L28.149 24.1178L29.7036 23.7013C30.0593 23.606 30.4248 23.817 30.5201 24.1727C30.6154 24.5283 30.4044 24.8939 30.0487 24.9892L29.782 25.0606L30.6971 25.589C31.016 25.7731 31.1252 26.1808 30.9411 26.4997C30.757 26.8185 30.3493 26.9278 30.0304 26.7437L29.1153 26.2153L29.1868 26.4821C29.2821 26.8377 29.071 27.2033 28.7154 27.2986C28.3597 27.3939 27.9942 27.1828 27.8989 26.8272L27.4823 25.2725L25.8328 24.3202V26.2239L26.9709 27.3619C27.2312 27.6223 27.2312 28.0444 26.9709 28.3047C26.7105 28.5651 26.2884 28.5651 26.0281 28.3047L25.8328 28.1095V29.1667C25.8328 29.5349 25.5343 29.8333 25.1661 29.8333C24.7979 29.8333 24.4995 29.5349 24.4995 29.1667V28.1095L24.3042 28.3047C24.0438 28.5651 23.6217 28.5651 23.3614 28.3047C23.101 28.0444 23.101 27.6223 23.3614 27.3619L24.4995 26.2239V24.323L22.8543 25.2728L22.4379 26.8268C22.3426 27.1825 21.9771 27.3935 21.6214 27.2982C21.2658 27.2029 21.0547 26.8374 21.15 26.4817L21.2213 26.2156L20.3064 26.7439C19.9875 26.9279 19.5798 26.8187 19.3957 26.4998C19.2116 26.181 19.3208 25.7732 19.6397 25.5892L20.5554 25.0605L20.2881 24.9888C19.9325 24.8935 19.7214 24.528 19.8167 24.1723C19.912 23.8167 20.2775 23.6056 20.6332 23.7009L22.1884 24.1177L23.8352 23.1669L22.1866 22.2151L20.631 22.6319C20.2753 22.7272 19.9098 22.5161 19.8145 22.1605C19.7192 21.8049 19.9303 21.4393 20.2859 21.344L20.5536 21.2723L19.6381 20.7437C19.3193 20.5596 19.21 20.1519 19.3941 19.833C19.5782 19.5141 19.9859 19.4049 20.3048 19.589L21.219 20.1168L21.1478 19.8511C21.0525 19.4955 21.2636 19.1299 21.6192 19.0346C21.9749 18.9393 22.3404 19.1504 22.4357 19.506L22.852 21.0596L24.4995 22.0108V20.1095L23.3614 18.9714C23.101 18.7111 23.101 18.2889 23.3614 18.0286C23.6217 17.7682 24.0438 17.7682 24.3042 18.0286L24.4995 18.2239V17.1667C24.4995 16.7985 24.7979 16.5 25.1661 16.5Z" fill="url(#paint5_linear_740_240520)"/>
<path fill-rule="evenodd" clip-rule="evenodd" d="M9.16613 19.1665C9.53432 19.1665 9.83279 19.465 9.83279 19.8332V20.8904L10.0281 20.6951C10.2884 20.4348 10.7105 20.4348 10.9709 20.6951C11.2312 20.9554 11.2312 21.3776 10.9709 21.6379L9.83279 22.776V24.6806L11.4846 23.7269L11.9011 22.1727C11.9964 21.817 12.3619 21.606 12.7176 21.7013C13.0732 21.7966 13.2843 22.1621 13.189 22.5178L13.1176 22.7841L14.032 22.2561C14.3509 22.0721 14.7586 22.1813 14.9427 22.5002C15.1268 22.819 15.0175 23.2268 14.6987 23.4108L13.7838 23.9391L14.0509 24.0107C14.4066 24.106 14.6176 24.4715 14.5223 24.8272C14.427 25.1828 14.0615 25.3939 13.7058 25.2986L12.1508 24.8819L10.5019 25.8339L12.149 26.7848L13.7036 26.3683C14.0593 26.273 14.4248 26.484 14.5201 26.8397C14.6154 27.1953 14.4044 27.5609 14.0487 27.6562L13.782 27.7276L14.6971 28.256C15.016 28.4401 15.1252 28.8478 14.9411 29.1667C14.757 29.4855 14.3493 29.5948 14.0304 29.4107L13.1153 28.8823L13.1868 29.1491C13.2821 29.5047 13.071 29.8703 12.7154 29.9656C12.3597 30.0609 11.9942 29.8498 11.8989 29.4942L11.4823 27.9395L9.83279 26.9872V28.8904L10.9709 30.0284C11.2312 30.2888 11.2312 30.7109 10.9709 30.9712C10.7105 31.2316 10.2884 31.2316 10.0281 30.9712L9.83279 30.776V31.8332C9.83279 32.2014 9.53432 32.4998 9.16613 32.4998C8.79794 32.4998 8.49946 32.2014 8.49946 31.8332V30.776L8.3042 30.9712C8.04385 31.2316 7.62174 31.2316 7.36139 30.9712C7.10104 30.7109 7.10104 30.2888 7.36139 30.0284L8.49946 28.8904V26.99L6.85434 27.9398L6.43793 29.4938C6.34263 29.8495 5.97708 30.0605 5.62143 29.9652C5.26579 29.8699 5.05473 29.5044 5.15003 29.1487L5.22134 28.8826L4.30637 29.4108C3.98751 29.5949 3.57979 29.4857 3.39569 29.1668C3.2116 28.848 3.32085 28.4402 3.63971 28.2561L4.55542 27.7275L4.2881 27.6558C3.93246 27.5605 3.7214 27.195 3.81669 26.8393C3.91199 26.4837 4.27755 26.2726 4.63319 26.3679L6.18841 26.7847L7.83521 25.8339L6.18664 24.8821L4.63099 25.2989C4.27535 25.3942 3.90979 25.1831 3.81449 24.8275C3.7192 24.4719 3.93025 24.1063 4.2859 24.011L4.55364 23.9393L3.63813 23.4107C3.31927 23.2266 3.21002 22.8189 3.39412 22.5C3.57821 22.1811 3.98594 22.0719 4.3048 22.256L5.21903 22.7838L5.14783 22.5181C5.05253 22.1625 5.26359 21.7969 5.61923 21.7016C5.97488 21.6063 6.34043 21.8174 6.43573 22.173L6.85202 23.7266L8.49946 24.6778V22.776L7.36139 21.6379C7.10104 21.3776 7.10104 20.9554 7.36139 20.6951C7.62174 20.4348 8.04385 20.4348 8.3042 20.6951L8.49946 20.8904V19.8332C8.49946 19.465 8.79794 19.1665 9.16613 19.1665Z" fill="url(#paint6_linear_740_240520)"/>
<defs>
<linearGradient id="paint0_linear_740_240520" x1="10.5" y1="9.16667" x2="16.5" y2="24.5" gradientUnits="userSpaceOnUse">
<stop stop-color="#C6D8F5"/>
<stop offset="1" stop-color="#89AFD1" stop-opacity="0"/>
</linearGradient>
<linearGradient id="paint1_linear_740_240520" x1="14.7666" y1="25.2078" x2="14.3462" y2="4.5" gradientUnits="userSpaceOnUse">
<stop stop-color="#547DDA"/>
<stop offset="0.257422" stop-color="#93C2FF" stop-opacity="0"/>
</linearGradient>
<radialGradient id="paint2_radial_740_240520" cx="0" cy="0" r="1" gradientUnits="userSpaceOnUse" gradientTransform="translate(9.16667 24.5) rotate(-127.875) scale(12.6686 14.661)">
<stop offset="0.683784" stop-color="#8FABDD" stop-opacity="0"/>
<stop offset="1" stop-color="#5582D3"/>
</radialGradient>
<radialGradient id="paint3_radial_740_240520" cx="0" cy="0" r="1" gradientUnits="userSpaceOnUse" gradientTransform="translate(15.834 22.5) rotate(-90) scale(18)">
<stop offset="0.598765" stop-color="#C7DFFF" stop-opacity="0"/>
<stop offset="1" stop-color="#6B97E6"/>
</radialGradient>
<radialGradient id="paint4_radial_740_240520" cx="0" cy="0" r="1" gradientUnits="userSpaceOnUse" gradientTransform="translate(21.2562 22.5446) rotate(-56.3099) scale(14.1017)">
<stop offset="0.47771" stop-color="#8FABDD" stop-opacity="0"/>
<stop offset="1" stop-color="#5582D3"/>
</radialGradient>
<linearGradient id="paint5_linear_740_240520" x1="30.4903" y1="29.1233" x2="21.1265" y2="15.2792" gradientUnits="userSpaceOnUse">
<stop stop-color="#1AA3F0"/>
<stop offset="1" stop-color="#3451F4"/>
</linearGradient>
<linearGradient id="paint6_linear_740_240520" x1="14.4903" y1="31.7898" x2="5.12654" y2="17.9457" gradientUnits="userSpaceOnUse">
<stop stop-color="#1AA3F0"/>
<stop offset="1" stop-color="#3451F4"/>
</linearGradient>
</defs>
</svg>
