<svg width="72" height="72" viewBox="0 0 72 72" fill="none" xmlns="http://www.w3.org/2000/svg">
<path fill-rule="evenodd" clip-rule="evenodd" d="M10.5163 25.2753C18.7683 25.2753 25.4579 18.5857 25.4579 10.3337C25.4579 8.56202 25.1495 6.86232 24.5835 5.28539C24.3418 4.61204 24.946 3.90348 25.6105 4.16856C31.6981 6.597 35.9999 12.5462 35.9999 19.5001C35.9999 28.6128 28.6126 36.0001 19.4999 36.0001C12.4285 36.0001 6.39603 31.5516 4.0483 25.3005C3.79678 24.6308 4.51736 24.041 5.18563 24.2963C6.84132 24.9288 8.63837 25.2753 10.5163 25.2753Z" fill="url(#paint0_radial_174_193738)"/>
<path fill-rule="evenodd" clip-rule="evenodd" d="M19.7924 55.2501H34.8585H35.9346H49.9245C56.4622 55.2501 61.7621 49.9502 61.7621 43.4125C61.7621 36.8747 56.4622 31.5749 49.9245 31.5749C49.6649 31.5749 49.4073 31.5832 49.1519 31.5997C46.4497 26.4661 41.0629 22.9657 34.8585 22.9657C27.0387 22.9657 20.5176 28.5261 19.0333 35.9088C14.039 36.296 10.1071 40.4712 10.1071 45.5648C10.1071 50.9138 14.4434 55.2501 19.7924 55.2501Z" fill="white"/>
<path fill-rule="evenodd" clip-rule="evenodd" d="M19.7924 55.2501H34.8585H35.9346H49.9245C56.4622 55.2501 61.7621 49.9502 61.7621 43.4125C61.7621 36.8747 56.4622 31.5749 49.9245 31.5749C49.6649 31.5749 49.4073 31.5832 49.1519 31.5997C46.4497 26.4661 41.0629 22.9657 34.8585 22.9657C27.0387 22.9657 20.5176 28.5261 19.0333 35.9088C14.039 36.296 10.1071 40.4712 10.1071 45.5648C10.1071 50.9138 14.4434 55.2501 19.7924 55.2501Z" fill="url(#paint1_linear_174_193738)"/>
<path d="M10.1071 45.5647C10.1071 40.2157 14.4434 35.8794 19.7924 35.8794H23.0209C30.1529 35.8794 35.9346 41.6611 35.9346 48.7931V55.25H19.7924C14.4434 55.25 10.1071 50.9138 10.1071 45.5647V45.5647Z" fill="url(#paint2_radial_174_193738)"/>
<path d="M18.7163 39.1079C18.7163 30.1928 25.9434 22.9657 34.8585 22.9657V22.9657C43.7735 22.9657 51.0007 30.1928 51.0007 39.1079V39.1079C51.0007 48.023 43.7735 55.2501 34.8585 55.2501V55.2501C25.9434 55.2501 18.7163 48.023 18.7163 39.1079V39.1079Z" fill="url(#paint3_radial_174_193738)"/>
<circle cx="49.9245" cy="43.4124" r="11.8376" fill="url(#paint4_radial_174_193738)"/>
<path fill-rule="evenodd" clip-rule="evenodd" d="M53.8751 36C54.6345 36 55.2501 36.6156 55.2501 37.375V39.5555L55.6528 39.1527C56.1898 38.6158 57.0604 38.6158 57.5973 39.1527C58.1343 39.6897 58.1343 40.5603 57.5973 41.0973L55.2501 43.4445V47.3683L58.6482 45.4064L59.5073 42.2002C59.7039 41.4666 60.4578 41.0313 61.1914 41.2279C61.9249 41.4244 62.3602 42.1784 62.1636 42.9119L62.0163 43.4619L63.9046 42.3717C64.5622 41.992 65.4031 42.2173 65.7828 42.8749C66.1625 43.5326 65.9372 44.3735 65.2796 44.7532L63.391 45.8436L63.9414 45.991C64.6749 46.1876 65.1102 46.9415 64.9136 47.675C64.7171 48.4086 63.9631 48.8439 63.2296 48.6473L60.023 47.7881L56.6249 49.75L60.023 51.7119L63.2296 50.8527C63.9631 50.6561 64.7171 51.0914 64.9136 51.825C65.1102 52.5585 64.6749 53.3124 63.9414 53.509L63.391 53.6564L65.2795 54.7468C65.9372 55.1265 66.1625 55.9674 65.7828 56.6251C65.4031 57.2827 64.5622 57.508 63.9045 57.1283L62.0163 56.0382L62.1636 56.5881C62.3602 57.3216 61.9249 58.0756 61.1914 58.2721C60.4578 58.4687 59.7039 58.0334 59.5073 57.2998L58.6482 54.0936L55.2501 52.1317V56.0555L57.5973 58.4027C58.1343 58.9397 58.1343 59.8103 57.5973 60.3473C57.0604 60.8842 56.1898 60.8842 55.6528 60.3473L55.2501 59.9445V62.125C55.2501 62.8844 54.6345 63.5 53.8751 63.5C53.1157 63.5 52.5001 62.8844 52.5001 62.125V59.9445L52.0973 60.3473C51.5604 60.8842 50.6898 60.8842 50.1528 60.3473C49.6158 59.8103 49.6158 58.9397 50.1528 58.4027L52.5001 56.0555V52.1315L49.1018 54.0935L48.2426 57.3C48.0461 58.0336 47.2921 58.4689 46.5586 58.2723C45.8251 58.0758 45.3898 57.3218 45.5863 56.5883L45.7338 56.038L43.8454 57.1282C43.1878 57.5079 42.3468 57.2826 41.9671 56.6249C41.5874 55.9673 41.8128 55.1264 42.4704 54.7467L44.3586 53.6565L43.8086 53.5092C43.0751 53.3126 42.6398 52.5587 42.8363 51.8252C43.0328 51.0916 43.7868 50.6563 44.5203 50.8529L47.7266 51.712L51.1249 49.75L47.7266 47.788L44.5203 48.6471C43.7868 48.8437 43.0329 48.4084 42.8363 47.6748C42.6398 46.9413 43.0751 46.1874 43.8086 45.9908L44.3585 45.8435L42.4704 44.7533C41.8127 44.3737 41.5874 43.5327 41.9671 42.8751C42.3468 42.2174 43.1877 41.9921 43.8454 42.3718L45.7338 43.462L45.5863 42.9117C45.3898 42.1782 45.8251 41.4242 46.5586 41.2277C47.2921 41.0311 48.0461 41.4664 48.2426 42.2L49.1018 45.4066L52.5001 47.3686V43.4445L50.1528 41.0973C49.6158 40.5603 49.6158 39.6897 50.1528 39.1527C50.6898 38.6158 51.5604 38.6158 52.0973 39.1527L52.5001 39.5555V37.375C52.5001 36.6156 53.1157 36 53.8751 36Z" fill="url(#paint5_linear_174_193738)"/>
<path fill-rule="evenodd" clip-rule="evenodd" d="M20.8749 41.5C21.6343 41.5 22.2499 42.1156 22.2499 42.875V45.0555L22.6526 44.6527C23.1896 44.1158 24.0602 44.1158 24.5972 44.6527C25.1341 45.1897 25.1341 46.0603 24.5972 46.5973L22.2499 48.9445V52.8684L25.6482 50.9064L26.5073 47.7002C26.7039 46.9666 27.4578 46.5313 28.1914 46.7279C28.9249 46.9244 29.3602 47.6784 29.1636 48.4119L29.0163 48.9619L30.9046 47.8717C31.5622 47.492 32.4031 47.7173 32.7828 48.3749C33.1625 49.0326 32.9372 49.8735 32.2796 50.2532L30.391 51.3436L30.9414 51.491C31.6749 51.6876 32.1102 52.4415 31.9136 53.175C31.7171 53.9086 30.9631 54.3439 30.2296 54.1473L27.023 53.2881L23.6249 55.25L27.0229 57.2119L30.2295 56.3527C30.963 56.1561 31.717 56.5914 31.9136 57.325C32.1101 58.0585 31.6748 58.8124 30.9413 59.009L30.391 59.1564L32.2795 60.2468C32.9372 60.6265 33.1625 61.4674 32.7828 62.1251C32.4031 62.7827 31.5622 63.008 30.9045 62.6283L29.0162 61.5381L29.1636 62.0881C29.3601 62.8216 28.9248 63.5756 28.1913 63.7721C27.4578 63.9687 26.7038 63.5334 26.5073 62.7998L25.6481 59.5936L22.2499 57.6316V61.5555L24.5972 63.9027C25.1341 64.4397 25.1341 65.3103 24.5972 65.8473C24.0602 66.3842 23.1896 66.3842 22.6526 65.8473L22.2499 65.4445V67.625C22.2499 68.3844 21.6343 69 20.8749 69C20.1155 69 19.4999 68.3844 19.4999 67.625V65.4445L19.0972 65.8473C18.5602 66.3842 17.6896 66.3842 17.1526 65.8473C16.6157 65.3103 16.6157 64.4397 17.1526 63.9027L19.4999 61.5555V57.6316L16.1019 59.5934L15.2427 62.8C15.0461 63.5336 14.2922 63.9689 13.5587 63.7723C12.8251 63.5758 12.3898 62.8218 12.5864 62.0883L12.7339 61.5379L10.8454 62.6282C10.1878 63.0079 9.34684 62.7826 8.96714 62.1249C8.58745 61.4673 8.81278 60.6264 9.47043 60.2467L11.3586 59.1565L10.8087 59.0092C10.0751 58.8126 9.63984 58.0587 9.83639 57.3252C10.0329 56.5916 10.7869 56.1563 11.5204 56.3529L14.7266 57.212L18.1249 55.25L14.7266 53.288L11.5203 54.1471C10.7868 54.3437 10.0329 53.9084 9.83631 53.1748C9.63977 52.4413 10.0751 51.6874 10.8086 51.4908L11.3585 51.3435L9.47038 50.2533C8.81273 49.8737 8.5874 49.0327 8.9671 48.3751C9.34679 47.7174 10.1877 47.4921 10.8454 47.8718L12.7338 48.962L12.5863 48.4117C12.3898 47.6782 12.8251 46.9242 13.5586 46.7277C14.2921 46.5311 15.0461 46.9664 15.2426 47.7L16.1018 50.9066L19.4999 52.8685V48.9445L17.1526 46.5973C16.6157 46.0603 16.6157 45.1897 17.1526 44.6527C17.6896 44.1158 18.5602 44.1158 19.0972 44.6527L19.4999 45.0555V42.875C19.4999 42.1156 20.1155 41.5 20.8749 41.5Z" fill="url(#paint6_linear_174_193738)"/>
<defs>
<radialGradient id="paint0_radial_174_193738" cx="0" cy="0" r="1" gradientUnits="userSpaceOnUse" gradientTransform="translate(14.5502 12.075) rotate(44.5779) scale(30.1139 30.1573)">
<stop stop-color="#FEF000"/>
<stop offset="0.40625" stop-color="#FCC90E"/>
<stop offset="0.760417" stop-color="#F8AA05"/>
</radialGradient>
<linearGradient id="paint1_linear_174_193738" x1="26.2493" y1="30.4987" x2="35.9346" y2="55.2501" gradientUnits="userSpaceOnUse">
<stop stop-color="#C7DBFF"/>
<stop offset="1" stop-color="#B5CBDF" stop-opacity="0"/>
</linearGradient>
<radialGradient id="paint2_radial_174_193738" cx="0" cy="0" r="1" gradientUnits="userSpaceOnUse" gradientTransform="translate(24.097 55.25) rotate(-117.897) scale(20.7001 23.9555)">
<stop offset="0.629385" stop-color="#B8CDDF" stop-opacity="0"/>
<stop offset="1" stop-color="#A3B9CC"/>
</radialGradient>
<radialGradient id="paint3_radial_174_193738" cx="0" cy="0" r="1" gradientUnits="userSpaceOnUse" gradientTransform="translate(34.8585 52.0216) rotate(-90) scale(29.0559)">
<stop offset="0.6875" stop-color="#B8CDDF" stop-opacity="0"/>
<stop offset="1" stop-color="#A0BCD3"/>
</radialGradient>
<radialGradient id="paint4_radial_174_193738" cx="0" cy="0" r="1" gradientUnits="userSpaceOnUse" gradientTransform="translate(43.6111 52.0933) rotate(-56.3099) scale(22.7632)">
<stop offset="0.382649" stop-color="#B8CDDF" stop-opacity="0"/>
<stop offset="1" stop-color="#A3B9CC"/>
</radialGradient>
<linearGradient id="paint5_linear_174_193738" x1="53.8749" y1="36" x2="53.8749" y2="63.5" gradientUnits="userSpaceOnUse">
<stop stop-color="#0097D9"/>
<stop offset="1" stop-color="#28AFEA"/>
</linearGradient>
<linearGradient id="paint6_linear_174_193738" x1="20.8749" y1="41.5" x2="20.8749" y2="69" gradientUnits="userSpaceOnUse">
<stop stop-color="#0097D9"/>
<stop offset="1" stop-color="#28AFEA"/>
</linearGradient>
</defs>
</svg>
