<svg width="72" height="72" viewBox="0 0 20 20" fill="none" xmlns="http://www.w3.org/2000/svg">
<path fill-rule="evenodd" clip-rule="evenodd" d="M11.3035 10.0522C13.2244 10.0522 14.7817 8.49495 14.7817 6.57396C14.7817 4.65297 13.2244 3.0957 11.3035 3.0957C9.38247 3.0957 7.8252 4.65297 7.8252 6.57396C7.8252 7.20743 7.99453 7.80134 8.29042 8.31291H0.869565C0.389318 8.31291 0 8.70222 0 9.18247C0 9.66272 0.389317 10.052 0.869564 10.052H11.267L11.3035 10.0522ZM20.0006 10.9217C20.0006 12.3624 18.8326 13.5304 17.3919 13.5304C17.3917 13.5304 17.3915 13.5304 17.3913 13.5304V13.531H16.3746C16.4707 13.803 16.5231 14.0958 16.5231 14.4007C16.5231 15.8414 15.3551 17.0094 13.9144 17.0094C12.4736 17.0094 11.3057 15.8414 11.3057 14.4007C11.3057 14.0958 11.358 13.803 11.4541 13.531H0.869567C0.389319 13.531 0 13.1417 0 12.6615C0 12.1812 0.389318 11.7919 0.869565 11.7919H14.9319C14.8356 11.5197 14.7832 11.2268 14.7832 10.9217C14.7832 9.48094 15.9512 8.31299 17.3919 8.31299C18.8326 8.31299 20.0006 9.48094 20.0006 10.9217Z" fill="url(#paint0_linear_740_241684)"/>
<path opacity="0.9" fill-rule="evenodd" clip-rule="evenodd" d="M13.9139 15.7027C13.1951 15.7027 12.6125 15.1201 12.6125 14.4014C12.6125 14.0668 12.7387 13.7618 12.9461 13.5312H11.4529C11.3569 13.8031 11.3047 14.0956 11.3047 14.4003C11.3047 15.8411 12.4726 17.009 13.9134 17.009C15.3541 17.009 16.5221 15.8411 16.5221 14.4003C16.5221 14.0956 16.4698 13.8031 16.3738 13.5312H14.8816C15.089 13.7618 15.2152 14.0668 15.2152 14.4014C15.2152 15.1201 14.6326 15.7027 13.9139 15.7027Z" fill="url(#paint1_linear_740_241684)"/>
<path opacity="0.9" fill-rule="evenodd" clip-rule="evenodd" d="M20.0025 10.9241C20.0025 11.2293 19.9501 11.5222 19.8538 11.7944H18.3628C18.5698 11.564 18.6957 11.2592 18.6957 10.9251C18.6957 10.2064 18.1131 9.6237 17.3943 9.6237C16.6756 9.6237 16.0929 10.2064 16.0929 10.9251C16.0929 11.2592 16.2189 11.564 16.4259 11.7944H14.9339C14.8376 11.5222 14.7852 11.2293 14.7852 10.9241C14.7852 9.48338 15.9531 8.31543 17.3939 8.31543C18.8346 8.31543 20.0025 9.48338 20.0025 10.9241Z" fill="url(#paint2_linear_740_241684)"/>
<path opacity="0.9" fill-rule="evenodd" clip-rule="evenodd" d="M14.7846 6.57396C14.7846 7.20746 14.6153 7.80141 14.3194 8.31299H11.3075C12.268 8.31299 13.0466 7.53435 13.0466 6.57386C13.0466 5.61336 12.268 4.83473 11.3075 4.83473C10.347 4.83473 9.56836 5.61336 9.56836 6.57386C9.56836 7.53435 10.347 8.31299 11.3075 8.31299H8.29339C7.99748 7.80141 7.82812 7.20746 7.82812 6.57396C7.82812 4.65297 9.3854 3.0957 11.3064 3.0957C13.2274 3.0957 14.7846 4.65297 14.7846 6.57396Z" fill="url(#paint3_linear_740_241684)"/>
<defs>
<linearGradient id="paint0_linear_740_241684" x1="14.3483" y1="17.0094" x2="10.435" y2="5.70456" gradientUnits="userSpaceOnUse">
<stop stop-color="#62839F"/>
<stop offset="1" stop-color="#9CB5D6"/>
</linearGradient>
<linearGradient id="paint1_linear_740_241684" x1="14.3482" y1="13.966" x2="10.0007" y2="17.0096" gradientUnits="userSpaceOnUse">
<stop stop-color="white" stop-opacity="0"/>
<stop offset="1" stop-color="white"/>
</linearGradient>
<linearGradient id="paint2_linear_740_241684" x1="17.3939" y1="11.3596" x2="14.7843" y2="6.5764" gradientUnits="userSpaceOnUse">
<stop stop-color="white" stop-opacity="0"/>
<stop offset="1" stop-color="white"/>
</linearGradient>
<linearGradient id="paint3_linear_740_241684" x1="12.176" y1="7.87821" x2="9.56734" y2="3.09566" gradientUnits="userSpaceOnUse">
<stop stop-color="white" stop-opacity="0"/>
<stop offset="1" stop-color="white"/>
</linearGradient>
</defs>
</svg>
